<svg viewBox="0 0 1440 573" fill="none" xmlns="http://www.w3.org/2000/svg">
  <path fill="url(#paint0_linear)" d="M0 0h1440v573H0z" />
  <mask id="a" maskUnits="userSpaceOnUse" x="0" y="0" width="1440" height="573">
    <path fill="#BB62E6" d="M0 0h1440v573H0z" />
  </mask>
  <g mask="url(#a)">
    <g opacity=".5">
      <ellipse cx="-411.22" cy="-258.5" rx="628.5" ry="577.562" transform="rotate(90 -411.22 -258.5)"
        fill="url(#paint1_linear)" />
      <ellipse cx="-236.814" cy="-258.5" rx="628.5" ry="577.562" transform="rotate(90 -236.814 -258.5)"
        fill="url(#paint2_linear)" />
      <ellipse opacity=".2" cx="-40.4382" cy="-274.5" rx="628.5" ry="577.562" transform="rotate(90 -40.4382 -274.5)"
        fill="url(#paint3_linear)" />
      <ellipse opacity=".2" cx="185.562" cy="-304.5" rx="628.5" ry="577.562" transform="rotate(90 185.562 -304.5)"
        fill="url(#paint4_linear)" />
    </g>
    <g opacity=".5">
      <ellipse cx="1996.75" cy="931.5" rx="628.5" ry="577.562" transform="rotate(-90 1996.75 931.5)"
        fill="url(#paint5_linear)" />
      <ellipse cx="1824.34" cy="931.5" rx="628.5" ry="577.562" transform="rotate(-90 1824.34 931.5)"
        fill="url(#paint6_linear)" />
      <ellipse cx="1649.94" cy="931.5" rx="628.5" ry="577.562" transform="rotate(-90 1649.94 931.5)"
        fill="url(#paint7_linear)" />
      <ellipse opacity=".2" cx="1453.56" cy="947.5" rx="628.5" ry="577.562" transform="rotate(-90 1453.56 947.5)"
        fill="url(#paint8_linear)" />
      <ellipse opacity=".2" cx="1227.56" cy="977.5" rx="628.5" ry="577.562" transform="rotate(-90 1227.56 977.5)"
        fill="url(#paint9_linear)" />
    </g>
    <path fill="url(#paint10_linear)" d="M-43-78.9999h718v518H-43z" />
    <path transform="rotate(-180 1440 772)" fill="url(#paint11_linear)" d="M1440 772h733v518h-733z" />
  </g>
  <mask id="b" maskUnits="userSpaceOnUse" x="0" y="0" width="1440" height="573">
    <path fill="#BB62E6" d="M0 0h1440v573H0z" />
  </mask>
  <g mask="url(#b)">
    <g opacity=".5">
      <ellipse cx="-411.22" cy="-258.5" rx="628.5" ry="577.562" transform="rotate(90 -411.22 -258.5)"
        fill="url(#paint12_linear)" />
      <ellipse cx="-236.814" cy="-258.5" rx="628.5" ry="577.562" transform="rotate(90 -236.814 -258.5)"
        fill="url(#paint13_linear)" />
      <ellipse opacity=".2" cx="-40.4382" cy="-274.5" rx="628.5" ry="577.562" transform="rotate(90 -40.4382 -274.5)"
        fill="url(#paint14_linear)" />
      <ellipse opacity=".2" cx="185.562" cy="-304.5" rx="628.5" ry="577.562" transform="rotate(90 185.562 -304.5)"
        fill="url(#paint15_linear)" />
    </g>
    <g opacity=".5">
      <ellipse cx="1996.75" cy="931.5" rx="628.5" ry="577.562" transform="rotate(-90 1996.75 931.5)"
        fill="url(#paint16_linear)" />
      <ellipse cx="1824.34" cy="931.5" rx="628.5" ry="577.562" transform="rotate(-90 1824.34 931.5)"
        fill="url(#paint17_linear)" />
      <ellipse cx="1649.94" cy="931.5" rx="628.5" ry="577.562" transform="rotate(-90 1649.94 931.5)"
        fill="url(#paint18_linear)" />
      <ellipse opacity=".2" cx="1453.56" cy="947.5" rx="628.5" ry="577.562" transform="rotate(-90 1453.56 947.5)"
        fill="url(#paint19_linear)" />
      <ellipse opacity=".2" cx="1227.56" cy="977.5" rx="628.5" ry="577.562" transform="rotate(-90 1227.56 977.5)"
        fill="url(#paint20_linear)" />
    </g>
    <path fill="url(#paint21_linear)" d="M-43-98.9999h741v518H-43z" />
    <path transform="rotate(-180 1440 752)" fill="url(#paint22_linear)" d="M1440 752h733v518h-733z" />
  </g>
  <g opacity=".1" filter="url(#filter0_f)">
    <path d="M349.377 224.361l312.226 158.49-293.37 191.151-18.856-349.641z" fill="#F7C44D" />
  </g>
  <g opacity=".29" filter="url(#filter1_f)">
    <path d="M653.614 306.399l181.197 104.614-181.197 104.614V306.399z" fill="#6DD1F4" />
  </g>
  <g opacity=".4" filter="url(#filter2_f)">
    <path fill="#02BFF1" d="M887 183h231v164H887z" />
  </g>
  <g opacity=".3" filter="url(#filter3_f)">
    <path fill="#FF7EE3"
      d="M525 168.638L673.20236215 25.99975091l165.87374962 172.34424616-148.20236214 142.6382491z" />
  </g>
  <defs>
    <linearGradient id="paint0_linear" x1="561" y1="477.072" x2="1325.34" y2="-109.09" gradientUnits="userSpaceOnUse">
      <stop offset="1" stop-color="#292D36" />
    </linearGradient>
    <linearGradient id="paint1_linear" x1="-411.22" y1="-836.062" x2="-411.22" y2="319.062"
      gradientUnits="userSpaceOnUse">
      <stop stop-color="#2CCCFF" stop-opacity=".24" />
      <stop offset="1" stop-color="#FFD954" stop-opacity="0" />
    </linearGradient>
    <linearGradient id="paint2_linear" x1="-236.814" y1="-836.062" x2="-236.814" y2="319.062"
      gradientUnits="userSpaceOnUse">
      <stop stop-color="#60B3FF" stop-opacity=".35" />
      <stop offset="1" stop-color="#66B6FF" stop-opacity="0" />
    </linearGradient>
    <linearGradient id="paint3_linear" x1="-40.4382" y1="-852.062" x2="-40.4382" y2="303.062"
      gradientUnits="userSpaceOnUse">
      <stop stop-color="#56FFF5" />
      <stop offset="1" stop-color="#70F3CC" stop-opacity=".84" />
    </linearGradient>
    <linearGradient id="paint4_linear" x1="186.062" y1="-869.5" x2="185.562" y2="273.062"
      gradientUnits="userSpaceOnUse">
      <stop stop-color="#35F4EA" />
      <stop offset="1" stop-color="#FFF628" />
    </linearGradient>
    <linearGradient id="paint5_linear" x1="1996.75" y1="353.938" x2="1996.75" y2="1509.06"
      gradientUnits="userSpaceOnUse">
      <stop stop-color="#fff" stop-opacity=".24" />
      <stop offset="1" stop-color="#F0D46E" stop-opacity="0" />
    </linearGradient>
    <linearGradient id="paint6_linear" x1="1824.34" y1="353.938" x2="1824.34" y2="1509.06"
      gradientUnits="userSpaceOnUse">
      <stop stop-color="#2CCCFF" stop-opacity=".24" />
      <stop offset="1" stop-color="#FFD954" stop-opacity="0" />
    </linearGradient>
    <linearGradient id="paint7_linear" x1="1649.94" y1="353.938" x2="1649.94" y2="1509.06"
      gradientUnits="userSpaceOnUse">
      <stop stop-color="#60B3FF" stop-opacity=".35" />
      <stop offset="1" stop-color="#66B6FF" stop-opacity="0" />
    </linearGradient>
    <linearGradient id="paint8_linear" x1="1453.56" y1="369.938" x2="1453.56" y2="1525.06"
      gradientUnits="userSpaceOnUse">
      <stop stop-color="#56FFF5" />
      <stop offset="1" stop-color="#70F3CC" stop-opacity=".84" />
    </linearGradient>
    <linearGradient id="paint9_linear" x1="1228.06" y1="412.501" x2="1227.56" y2="1555.06"
      gradientUnits="userSpaceOnUse">
      <stop stop-color="#35F4EA" />
      <stop offset="1" stop-color="#FFF628" />
    </linearGradient>
    <linearGradient id="paint10_linear" x1="191" y1="317" x2="183" y2="-159" gradientUnits="userSpaceOnUse">
      <stop stop-color="#292D36" />
      <stop offset="1" stop-color="#292D36" stop-opacity="0" />
    </linearGradient>
    <linearGradient id="paint11_linear" x1="1678.89" y1="1168" x2="1671.05" y2="691.995" gradientUnits="userSpaceOnUse">
      <stop stop-color="#292D36" />
      <stop offset="1" stop-color="#292D36" stop-opacity="0" />
    </linearGradient>
    <linearGradient id="paint12_linear" x1="-411.22" y1="-836.062" x2="-411.22" y2="319.062"
      gradientUnits="userSpaceOnUse">
      <stop stop-color="#2CCCFF" stop-opacity=".24" />
      <stop offset="1" stop-color="#FFD954" stop-opacity="0" />
    </linearGradient>
    <linearGradient id="paint13_linear" x1="-236.814" y1="-836.062" x2="-236.814" y2="319.062"
      gradientUnits="userSpaceOnUse">
      <stop stop-color="#60B3FF" stop-opacity=".35" />
      <stop offset="1" stop-color="#66B6FF" stop-opacity="0" />
    </linearGradient>
    <linearGradient id="paint14_linear" x1="-40.4382" y1="-852.062" x2="-40.4382" y2="303.062"
      gradientUnits="userSpaceOnUse">
      <stop stop-color="#56FFF5" />
      <stop offset="1" stop-color="#70F3CC" stop-opacity=".84" />
    </linearGradient>
    <linearGradient id="paint15_linear" x1="186.062" y1="-869.5" x2="185.562" y2="273.062"
      gradientUnits="userSpaceOnUse">
      <stop stop-color="#35F4EA" />
      <stop offset="1" stop-color="#FFF628" />
    </linearGradient>
    <linearGradient id="paint16_linear" x1="1996.75" y1="353.938" x2="1996.75" y2="1509.06"
      gradientUnits="userSpaceOnUse">
      <stop stop-color="#fff" stop-opacity=".24" />
      <stop offset="1" stop-color="#F0D46E" stop-opacity="0" />
    </linearGradient>
    <linearGradient id="paint17_linear" x1="1824.34" y1="353.938" x2="1824.34" y2="1509.06"
      gradientUnits="userSpaceOnUse">
      <stop stop-color="#2CCCFF" stop-opacity=".24" />
      <stop offset="1" stop-color="#FFD954" stop-opacity="0" />
    </linearGradient>
    <linearGradient id="paint18_linear" x1="1649.94" y1="353.938" x2="1649.94" y2="1509.06"
      gradientUnits="userSpaceOnUse">
      <stop stop-color="#60B3FF" stop-opacity=".35" />
      <stop offset="1" stop-color="#66B6FF" stop-opacity="0" />
    </linearGradient>
    <linearGradient id="paint19_linear" x1="1453.56" y1="369.938" x2="1453.56" y2="1525.06"
      gradientUnits="userSpaceOnUse">
      <stop stop-color="#56FFF5" />
      <stop offset="1" stop-color="#70F3CC" stop-opacity=".84" />
    </linearGradient>
    <linearGradient id="paint20_linear" x1="1228.06" y1="412.501" x2="1227.56" y2="1555.06"
      gradientUnits="userSpaceOnUse">
      <stop stop-color="#35F4EA" />
      <stop offset="1" stop-color="#FFF628" />
    </linearGradient>
    <linearGradient id="paint21_linear" x1="198.496" y1="297" x2="190.744" y2="-179.008" gradientUnits="userSpaceOnUse">
      <stop stop-color="#292D36" />
      <stop offset="1" stop-color="#292D36" stop-opacity="0" />
    </linearGradient>
    <linearGradient id="paint22_linear" x1="1678.89" y1="1148" x2="1671.05" y2="671.995" gradientUnits="userSpaceOnUse">
      <stop stop-color="#292D36" />
      <stop offset="1" stop-color="#292D36" stop-opacity="0" />
    </linearGradient>
    <filter id="filter0_f" x="38.6923" y="-35.2145" width="786.911" height="773.216" filterUnits="userSpaceOnUse"
      color-interpolation-filters="sRGB">
      <feFlood flood-opacity="0" result="BackgroundImageFix" />
      <feBlend in="SourceGraphic" in2="BackgroundImageFix" result="shape" />
      <feGaussianBlur stdDeviation="82" result="effect1_foregroundBlur" />
    </filter>
    <filter id="filter1_f" x="399.016" y="90.0919" width="599.795" height="589.535" filterUnits="userSpaceOnUse"
      color-interpolation-filters="sRGB">
      <feFlood flood-opacity="0" result="BackgroundImageFix" />
      <feBlend in="SourceGraphic" in2="BackgroundImageFix" result="shape" />
      <feGaussianBlur stdDeviation="82" result="effect1_foregroundBlur" />
    </filter>
    <filter id="filter2_f" x="663" y="-41" width="679" height="612" filterUnits="userSpaceOnUse"
      color-interpolation-filters="sRGB">
      <feFlood flood-opacity="0" result="BackgroundImageFix" />
      <feBlend in="SourceGraphic" in2="BackgroundImageFix" result="shape" />
      <feGaussianBlur stdDeviation="112" result="effect1_foregroundBlur" />
    </filter>
    <filter id="filter3_f" x="275" y="-224" width="814.076" height="814.982" filterUnits="userSpaceOnUse"
      color-interpolation-filters="sRGB">
      <feFlood flood-opacity="0" result="BackgroundImageFix" />
      <feBlend in="SourceGraphic" in2="BackgroundImageFix" result="shape" />
      <feGaussianBlur stdDeviation="125" result="effect1_foregroundBlur" />
    </filter>
  </defs>
</svg>